<svg version="1.1" viewBox="0.0 0.0 960.0 960.0" fill="none" stroke="none" stroke-linecap="square" stroke-miterlimit="10" xmlns:xlink="http://www.w3.org/1999/xlink" xmlns="http://www.w3.org/2000/svg"><clipPath id="p.0"><path d="m0 0l960.0 0l0 960.0l-960.0 0l0 -960.0z" clip-rule="nonzero"/></clipPath><g clip-path="url(#p.0)"><path fill="#000000" fill-opacity="0.0" d="m0 0l960.0 0l0 960.0l-960.0 0z" fill-rule="evenodd"/><path fill="#fcf55f" d="m84.28871 545.7473l0 0c0 -120.88513 97.7782 -218.8819 218.39369 -218.8819l0 0c57.92163 0 113.47092 23.0607 154.42767 64.10901c40.956757 41.04834 63.966034 96.7218 63.966034 154.77289l0 0c0 120.88513 -97.7782 218.8819 -218.3937 218.8819l0 0c-120.61549 0 -218.39369 -97.996765 -218.39369 -218.8819z" fill-rule="evenodd"/><path fill="#deb841" d="m510.8511 319.59106l0 113.180115l68.31503 0l0 -13.162506l-51.872192 0l0 -100.01761z" fill-rule="evenodd"/><path fill="#deb841" d="m601.8772 319.59106l0 76.11731c0 5.8307495 0.73687744 11.113068 2.2105713 15.846924c1.4938965 4.7338867 3.855835 8.7942505 7.0858765 12.181091c3.250183 3.3675842 7.4492188 5.975067 12.597046 7.8224487c5.147888 1.8473511 11.416138 2.7710571 18.80481 2.7710571c6.722473 0 12.667786 -0.9621887 17.835815 -2.8865356c5.1882324 -1.943573 9.568909 -4.6857605 13.142151 -8.226532c3.5731812 -3.5600586 6.2783203 -7.860962 8.1154175 -12.90271c1.8572388 -5.061035 2.7858887 -10.708954 2.7858887 -16.943817l0 -73.779236l-16.170288 0l0 74.73178c0 8.601807 -2.0490723 15.269623 -6.147156 20.00351c-4.077881 4.7338867 -10.416809 7.10083 -19.016724 7.10083c-4.602783 0 -8.499023 -0.577301 -11.68866 -1.7319031c-3.1694946 -1.154602 -5.753479 -2.857666 -7.752075 -5.109131c-1.9985962 -2.2514954 -3.4420166 -5.0513916 -4.330261 -8.39975c-0.868042 -3.3483582 -1.302063 -7.2451477 -1.302063 -11.690369l0 -74.90497z" fill-rule="evenodd"/><path fill="#deb841" d="m704.5314 319.59106l-5.814026 113.180115l15.261841 0l2.0894775 -69.362885l0.3633423 -28.31668l5.541504 17.49228l16.715393 43.29767l11.173828 0l17.53302 -45.02957l5.541504 -15.760376l0.9992676 27.10437l2.3619385 70.575195l15.806946 0l-5.7232056 -113.180115l-19.713257 0l-16.806213 42.60492l-4.996399 14.374817l-5.1781616 -14.374817l-15.988586 -42.60492z" fill-rule="evenodd"/><path fill="#deb841" d="m814.8165 319.59106l0 113.180115l67.497375 0l0 -13.162506l-51.327087 0l0 -38.967896l49.32849 0l0 -12.989288l-49.32849 0l0 -35.071136l51.327087 0l0 -12.989288z" fill-rule="evenodd"/><path stroke="#3a3335" stroke-width="4.0" stroke-linejoin="round" stroke-linecap="butt" d="m510.8511 319.59106l0 113.180115l68.31503 0l0 -13.162506l-51.872192 0l0 -100.01761z" fill-rule="evenodd"/><path stroke="#3a3335" stroke-width="4.0" stroke-linejoin="round" stroke-linecap="butt" d="m601.8772 319.59106l0 76.11731c0 5.8307495 0.73687744 11.113068 2.2105713 15.846924c1.4938965 4.7338867 3.855835 8.7942505 7.0858765 12.181091c3.250183 3.3675842 7.4492188 5.975067 12.597046 7.8224487c5.147888 1.8473511 11.416138 2.7710571 18.80481 2.7710571c6.722473 0 12.667786 -0.9621887 17.835815 -2.8865356c5.1882324 -1.943573 9.568909 -4.6857605 13.142151 -8.226532c3.5731812 -3.5600586 6.2783203 -7.860962 8.1154175 -12.90271c1.8572388 -5.061035 2.7858887 -10.708954 2.7858887 -16.943817l0 -73.779236l-16.170288 0l0 74.73178c0 8.601807 -2.0490723 15.269623 -6.147156 20.00351c-4.077881 4.7338867 -10.416809 7.10083 -19.016724 7.10083c-4.602783 0 -8.499023 -0.577301 -11.68866 -1.7319031c-3.1694946 -1.154602 -5.753479 -2.857666 -7.752075 -5.109131c-1.9985962 -2.2514954 -3.4420166 -5.0513916 -4.330261 -8.39975c-0.868042 -3.3483582 -1.302063 -7.2451477 -1.302063 -11.690369l0 -74.90497z" fill-rule="evenodd"/><path stroke="#3a3335" stroke-width="4.0" stroke-linejoin="round" stroke-linecap="butt" d="m704.5314 319.59106l-5.814026 113.180115l15.261841 0l2.0894775 -69.362885l0.3633423 -28.31668l5.541504 17.49228l16.715393 43.29767l11.173828 0l17.53302 -45.02957l5.541504 -15.760376l0.9992676 27.10437l2.3619385 70.575195l15.806946 0l-5.7232056 -113.180115l-19.713257 0l-16.806213 42.60492l-4.996399 14.374817l-5.1781616 -14.374817l-15.988586 -42.60492z" fill-rule="evenodd"/><path stroke="#3a3335" stroke-width="4.0" stroke-linejoin="round" stroke-linecap="butt" d="m814.8165 319.59106l0 113.180115l67.497375 0l0 -13.162506l-51.327087 0l0 -38.967896l49.32849 0l0 -12.989288l-49.32849 0l0 -35.071136l51.327087 0l0 -12.989288z" fill-rule="evenodd"/><path fill="#980000" d="m509.97598 442.537l373.29135 0l0 11.811005l-373.29135 0z" fill-rule="evenodd"/><path stroke="#3a3335" stroke-width="4.0" stroke-linejoin="round" stroke-linecap="butt" d="m509.97598 442.537l373.29135 0l0 11.811005l-373.29135 0z" fill-rule="evenodd"/><path fill="#0000ff" d="m587.70605 299.57742l294.67712 0l0 11.811035l-294.67712 0z" fill-rule="evenodd"/><path stroke="#3a3335" stroke-width="4.0" stroke-linejoin="round" stroke-linecap="butt" d="m587.70605 299.57742l294.67712 0l0 11.811035l-294.67712 0z" fill-rule="evenodd"/><path fill="#da2c38" d="m91.2336 545.2276l0 0c0 -116.64078 94.556046 -211.19684 211.19685 -211.19684l0 0c56.01288 0 109.73163 22.251038 149.33871 61.858124c39.607086 39.607117 61.858154 93.325836 61.858154 149.33871l0 0c0 116.64081 -94.55606 211.1969 -211.19687 211.1969l0 0c-116.64081 0 -211.19685 -94.55609 -211.19685 -211.1969z" fill-rule="evenodd"/><path stroke="#b50000" stroke-width="2.0" stroke-linejoin="round" stroke-linecap="butt" d="m91.2336 545.2276l0 0c0 -116.64078 94.556046 -211.19684 211.19685 -211.19684l0 0c56.01288 0 109.73163 22.251038 149.33871 61.858124c39.607086 39.607117 61.858154 93.325836 61.858154 149.33871l0 0c0 116.64081 -94.55606 211.1969 -211.19687 211.1969l0 0c-116.64081 0 -211.19685 -94.55609 -211.19685 -211.1969z" fill-rule="evenodd"/><path fill="#deb841" d="m210.89673 402.86646l0 0c25.996536 -55.411133 105.083496 -73.02362 176.64569 -39.338593l0 0c71.562164 33.685028 108.50046 105.91171 82.50394 161.32285l0 0c-25.996521 55.411133 -105.083496 73.02362 -176.64569 39.338562l0 0c-71.56218 -33.684998 -108.50046 -105.91171 -82.50394 -161.32281z" fill-rule="evenodd"/><path fill="#fcf55f" d="m261.49283 398.31802l0 0c18.386292 -38.025024 72.8736 -49.47525 121.700775 -25.574799l0 0c48.82718 23.900452 73.504395 74.10095 55.118103 112.12598l0 0c-18.386292 38.025024 -72.8736 49.47522 -121.700775 25.574799l0 0c-48.82721 -23.900452 -73.50441 -74.10095 -55.118103 -112.12598z" fill-rule="evenodd"/><path fill="#000000" fill-opacity="0.0" d="m341.28342 446.19904c48.53543 -12.102356 59.95276 -69.69687 71.37009 -127.29135c11.417328 -57.594482 22.834656 -115.188965 71.37009 -127.291336" fill-rule="evenodd"/><path stroke="#3a3335" stroke-width="24.0" stroke-linejoin="round" stroke-linecap="butt" d="m341.28342 446.19904c48.53543 -12.102356 59.95276 -69.69687 71.37009 -127.29135c11.417328 -57.594482 22.834656 -115.188965 71.37009 -127.291336" fill-rule="evenodd"/><path fill="#000000" fill-opacity="0.0" d="m475.0054 190.11832c24.434021 -6.5457306 51.76596 -13.293686 76.39151 -2.7039185c18.750061 8.063126 37.6593 29.470291 41.209167 51.924866c3.0927124 19.562439 -8.455383 42.179504 -23.481934 49.883392c-20.98114 10.756622 -54.604187 10.419342 -71.14099 -10.813141" fill-rule="evenodd"/><path stroke="#3a3335" stroke-width="16.0" stroke-linejoin="round" stroke-linecap="butt" d="m475.0054 190.11832c24.434021 -6.5457306 51.76596 -13.293686 76.39151 -2.7039185c18.750061 8.063126 37.6593 29.470291 41.209167 51.924866c3.0927124 19.562439 -8.455383 42.179504 -23.481934 49.883392c-20.98114 10.756622 -54.604187 10.419342 -71.14099 -10.813141" fill-rule="evenodd"/><path fill="#000000" fill-opacity="0.0" d="m343.8451 447.13083c48.53543 -12.102386 59.95273 -69.69687 71.370056 -127.29135c11.417328 -57.594482 22.834656 -115.18898 71.37009 -127.291336" fill-rule="evenodd"/><path stroke="#deb841" stroke-width="16.0" stroke-linejoin="round" stroke-linecap="butt" d="m343.8451 447.13083c48.53543 -12.102386 59.95273 -69.69687 71.370056 -127.29135c11.417328 -57.594482 22.834656 -115.18898 71.37009 -127.291336" fill-rule="evenodd"/><path fill="#000000" fill-opacity="0.0" d="m354.9851 469.94925c48.53546 -12.102356 59.95276 -69.69687 71.37009 -127.29135c11.417328 -57.594482 22.834656 -115.188965 71.37009 -127.291336" fill-rule="evenodd"/><path stroke="#3a3335" stroke-width="24.0" stroke-linejoin="round" stroke-linecap="butt" d="m354.9851 469.94925c48.53546 -12.102356 59.95276 -69.69687 71.37009 -127.29135c11.417328 -57.594482 22.834656 -115.188965 71.37009 -127.291336" fill-rule="evenodd"/><path fill="#000000" fill-opacity="0.0" d="m486.62732 217.27896c32.53418 -9.425766 86.19971 -4.966034 89.83716 18.54152c3.1808472 20.556747 -52.334106 40.71138 -79.517 37.15172" fill-rule="evenodd"/><path stroke="#3a3335" stroke-width="24.0" stroke-linejoin="round" stroke-linecap="butt" d="m486.62732 217.27896c32.53418 -9.425766 86.19971 -4.966034 89.83716 18.54152c3.1808472 20.556747 -52.334106 40.71138 -79.517 37.15172" fill-rule="evenodd"/><path fill="#000000" fill-opacity="0.0" d="m350.48044 463.4953c48.53543 -12.102356 59.95276 -69.69687 71.37009 -127.29135c11.417297 -57.594482 22.834625 -115.188965 71.370056 -127.291336" fill-rule="evenodd"/><path stroke="#deb841" stroke-width="24.0" stroke-linejoin="round" stroke-linecap="butt" d="m350.48044 463.4953c48.53543 -12.102356 59.95276 -69.69687 71.37009 -127.29135c11.417297 -57.594482 22.834625 -115.188965 71.370056 -127.291336" fill-rule="evenodd"/><path fill="#000000" fill-opacity="0.0" d="m484.9707 192.92622c20.778442 -5.1806183 44.015747 -10.477509 64.7937 -0.7856903c15.820496 7.3793945 31.649231 26.340714 34.445618 45.89711c2.4362793 17.037552 -7.56958 36.42656 -20.382935 42.804245c-17.89093 8.904968 -46.394775 7.925476 -60.213684 -10.835785" fill-rule="evenodd"/><path stroke="#deb841" stroke-width="16.0" stroke-linejoin="round" stroke-linecap="butt" d="m484.9707 192.92622c20.778442 -5.1806183 44.015747 -10.477509 64.7937 -0.7856903c15.820496 7.3793945 31.649231 26.340714 34.445618 45.89711c2.4362793 17.037552 -7.56958 36.42656 -20.382935 42.804245c-17.89093 8.904968 -46.394775 7.925476 -60.213684 -10.835785" fill-rule="evenodd"/><path fill="#000000" fill-opacity="0.0" d="m488.5824 210.08144c32.53418 -9.425781 87.32202 -1.1088867 92.33722 27.133728c4.385742 24.697464 -50.900818 45.636887 -78.72522 39.872696" fill-rule="evenodd"/><path stroke="#deb841" stroke-width="24.0" stroke-linejoin="round" stroke-linecap="butt" d="m488.5824 210.08144c32.53418 -9.425781 87.32202 -1.1088867 92.33722 27.133728c4.385742 24.697464 -50.900818 45.636887 -78.72522 39.872696" fill-rule="evenodd"/><path fill="#deb841" d="m196.24336 232.17323l0 1.4436035l7.964691 3.623764l0 50.054962c0 4.0362244 -0.28599548 7.021637 -0.85798645 8.956268c-0.56118774 1.9346619 -1.3544159 3.201477 -2.3796844 3.800537c-1.0252686 0.59906006 -2.2663727 0.8985901 -3.7233276 0.8985901c-0.92814636 0 -1.7267761 -0.058929443 -2.3958893 -0.17678833c-0.6583252 -0.11782837 -1.5540771 -0.3289795 -2.687271 -0.63342285l-0.5989685 0c-0.46406555 2.1703491 -0.7446594 3.4960938 -0.8417969 3.977295c-0.09712219 0.49102783 -0.14569092 0.7954712 -0.14569092 0.91329956c0 0.96243286 0.3291626 1.6253052 0.9874878 1.9886475c0.6691284 0.3633728 1.435379 0.54504395 2.2987518 0.54504395c1.3274536 0 2.4876099 -0.15222168 3.4804993 -0.45666504c0.9928894 -0.30441284 2.0829163 -0.9378357 3.27005 -1.900238c1.1979523 -0.96243286 2.757431 -2.4109497 4.6784515 -4.345581c2.8491516 -2.8970337 4.872696 -7.04126 6.070633 -12.432709c1.1979523 -5.4012756 1.7969208 -11.485046 1.7969208 -18.251373l0 -32.937866l7.9484863 -3.623764l0 -1.4436035z" fill-rule="evenodd"/><path fill="#deb841" d="m233.53685 232.17323l0 1.4436035l7.964676 3.623764l0 49.598328l-7.964676 3.6237488l0 1.4436035l51.430496 0l0 -16.468933l-1.5864563 0l-6.1677856 11.48996l-26.7594 0l0 -23.348175l16.900665 0l4.986023 7.3358765l1.5864563 0l0 -19.82753l-1.5864563 0l-4.986023 7.5126495l-16.900665 0l0 -21.447906l23.975006 0l6.151581 10.591385l1.6026306 0l0 -15.570374z" fill-rule="evenodd"/><path fill="#deb841" d="m296.3945 232.17323l0 18.280823l1.6026306 0l6.766754 -13.301834l16.20456 0l0 49.686707l-9.939667 3.6237488l0 1.4436035l28.831512 0l0 -1.4436035l-9.939667 -3.6237488l0 -49.686707l16.20456 0l6.766754 13.301834l1.6026611 0l0 -18.280823z" fill-rule="evenodd"/><path fill="#deb841" d="m359.95483 265.47937l0 6.3342285l27.358368 0l0 -6.3342285z" fill-rule="evenodd"/><path stroke="#3a3335" stroke-width="3.0" stroke-linejoin="round" stroke-linecap="butt" d="m196.24336 232.17323l0 1.4436035l7.964691 3.623764l0 50.054962c0 4.0362244 -0.28599548 7.021637 -0.85798645 8.956268c-0.56118774 1.9346619 -1.3544159 3.201477 -2.3796844 3.800537c-1.0252686 0.59906006 -2.2663727 0.8985901 -3.7233276 0.8985901c-0.92814636 0 -1.7267761 -0.058929443 -2.3958893 -0.17678833c-0.6583252 -0.11782837 -1.5540771 -0.3289795 -2.687271 -0.63342285l-0.5989685 0c-0.46406555 2.1703491 -0.7446594 3.4960938 -0.8417969 3.977295c-0.09712219 0.49102783 -0.14569092 0.7954712 -0.14569092 0.91329956c0 0.96243286 0.3291626 1.6253052 0.9874878 1.9886475c0.6691284 0.3633728 1.435379 0.54504395 2.2987518 0.54504395c1.3274536 0 2.4876099 -0.15222168 3.4804993 -0.45666504c0.9928894 -0.30441284 2.0829163 -0.9378357 3.27005 -1.900238c1.1979523 -0.96243286 2.757431 -2.4109497 4.6784515 -4.345581c2.8491516 -2.8970337 4.872696 -7.04126 6.070633 -12.432709c1.1979523 -5.4012756 1.7969208 -11.485046 1.7969208 -18.251373l0 -32.937866l7.9484863 -3.623764l0 -1.4436035z" fill-rule="evenodd"/><path stroke="#3a3335" stroke-width="3.0" stroke-linejoin="round" stroke-linecap="butt" d="m233.53685 232.17323l0 1.4436035l7.964676 3.623764l0 49.598328l-7.964676 3.6237488l0 1.4436035l51.430496 0l0 -16.468933l-1.5864563 0l-6.1677856 11.48996l-26.7594 0l0 -23.348175l16.900665 0l4.986023 7.3358765l1.5864563 0l0 -19.82753l-1.5864563 0l-4.986023 7.5126495l-16.900665 0l0 -21.447906l23.975006 0l6.151581 10.591385l1.6026306 0l0 -15.570374z" fill-rule="evenodd"/><path stroke="#3a3335" stroke-width="3.0" stroke-linejoin="round" stroke-linecap="butt" d="m296.3945 232.17323l0 18.280823l1.6026306 0l6.766754 -13.301834l16.20456 0l0 49.686707l-9.939667 3.6237488l0 1.4436035l28.831512 0l0 -1.4436035l-9.939667 -3.6237488l0 -49.686707l16.20456 0l6.766754 13.301834l1.6026611 0l0 -18.280823z" fill-rule="evenodd"/><path stroke="#3a3335" stroke-width="3.0" stroke-linejoin="round" stroke-linecap="butt" d="m359.95483 265.47937l0 6.3342285l27.358368 0l0 -6.3342285z" fill-rule="evenodd"/><path fill="#000000" fill-opacity="0.0" d="m346.04156 439.4208c0.039398193 12.006744 6.940033 23.202148 12.868347 33.64334" fill-rule="evenodd"/><path stroke="#deb841" stroke-width="12.0" stroke-linejoin="round" stroke-linecap="butt" d="m346.04156 439.4208c0.039398193 12.006744 6.940033 23.202148 12.868347 33.64334" fill-rule="evenodd"/><path fill="#000000" fill-opacity="0.0" d="m502.66928 265.0l-4.9133606 23.496063" fill-rule="evenodd"/><path stroke="#3a3335" stroke-width="4.0" stroke-linejoin="round" stroke-linecap="butt" d="m502.66928 265.0l-4.9133606 23.496063" fill-rule="evenodd"/><path fill="#000000" fill-opacity="0.0" d="m498.55917 261.15485l-4.850403 22.771667" fill-rule="evenodd"/><path stroke="#3a3335" stroke-width="4.0" stroke-linejoin="round" stroke-linecap="butt" d="m498.55917 261.15485l-4.850403 22.771667" fill-rule="evenodd"/><path fill="#000000" fill-opacity="0.0" d="m501.00592 262.76248l-4.913391 23.496063" fill-rule="evenodd"/><path stroke="#3a3335" stroke-width="4.0" stroke-linejoin="round" stroke-linecap="butt" d="m501.00592 262.76248l-4.913391 23.496063" fill-rule="evenodd"/><path fill="#000000" fill-opacity="0.0" d="m508.12213 265.28214c1.3122253 0.26730347 2.6825867 0.33773804 4.0131836 0.18634033" fill-rule="evenodd"/><path stroke="#3a3335" stroke-width="1.0" stroke-linejoin="round" stroke-linecap="butt" d="m508.12213 265.28214c1.3122253 0.26730347 2.6825867 0.33773804 4.0131836 0.18634033" fill-rule="evenodd"/><path fill="#000000" fill-opacity="0.0" d="m498.86905 282.34232c4.650757 4.681793 10.960663 7.904419 17.359589 9.517639" fill-rule="evenodd"/><path stroke="#3a3335" stroke-width="4.0" stroke-linejoin="round" stroke-linecap="butt" d="m498.86905 282.34232c4.650757 4.681793 10.960663 7.904419 17.359589 9.517639" fill-rule="evenodd"/><path fill="#000000" fill-opacity="0.0" d="m497.058 284.09296c4.6507874 4.6818237 10.960663 7.9044495 17.359589 9.517639" fill-rule="evenodd"/><path stroke="#3a3335" stroke-width="4.0" stroke-linejoin="round" stroke-linecap="butt" d="m497.058 284.09296c4.6507874 4.6818237 10.960663 7.9044495 17.359589 9.517639" fill-rule="evenodd"/></g></svg>